M48
; DRILL file {KiCad 5.1.5-52549c5~84~ubuntu18.04.1} date Wed 11 Mar 2020 12:48:53 GMT
; FORMAT={-:-/ absolute / inch / decimal}
; #@! TF.CreationDate,2020-03-11T12:48:53+00:00
; #@! TF.GenerationSoftware,Kicad,Pcbnew,5.1.5-52549c5~84~ubuntu18.04.1
; #@! TF.FileFunction,Plated,1,2,PTH
FMAT,2
INCH
T1C0.0157
T2C0.0197
T3C0.0315
T4C0.0394
T5C0.0433
T6C0.0472
T7C0.0551
%
G90
G05
T1
X4.75Y-2.2
X4.85Y-1.85
X4.85Y-2.95
X4.85Y-3.65
X4.95Y-1.8
X4.95Y-2.95
X4.95Y-3.65
X4.9641Y-2.0082
X4.9752Y-3.4012
X5.05Y-2.2
X5.05Y-2.9
X5.05Y-2.95
X5.05Y-3.0
X5.05Y-3.25
X5.05Y-3.45
X5.05Y-3.6
X5.05Y-3.7
X5.15Y-2.8715
X5.15Y-3.0
X5.25Y-2.95
X5.7Y-3.5
X5.7Y-3.6
X5.8Y-2.1
X5.85Y-1.75
X5.85Y-1.85
X5.85Y-3.65
X5.939Y-3.011
X5.95Y-1.55
X5.95Y-2.9
X5.95Y-3.65
X5.95Y-3.7
X5.95Y-3.7
X5.9544Y-2.9456
X6.05Y-1.85
X6.05Y-2.95
X6.05Y-3.7
X6.2Y-2.55
X6.2Y-3.55
X6.2Y-3.65
X6.2202Y-2.7298
X6.25Y-1.85
X6.35Y-3.0
X6.45Y-1.8
X6.45Y-2.7449
X6.5Y-3.0
X6.6Y-2.5
X6.75Y-2.5
X6.95Y-2.35
X7.0Y-3.55
X7.0Y-3.65
X7.2Y-2.35
X9.05Y-3.85
T2
X8.55Y-3.55
X8.7Y-3.55
T3
X7.7Y-1.1
X7.7Y-1.2
X7.7Y-1.3
X7.7Y-1.4
X7.7Y-1.5
X7.7Y-1.6
X7.7Y-1.7
X7.7Y-1.8
X8.2Y-1.1
X8.2Y-1.2
X8.2Y-1.3
X8.2Y-1.4
X8.2Y-1.5
X8.2Y-1.6
X8.2Y-1.7
X8.2Y-1.8
X5.95Y-3.5
X5.95Y-3.8
X6.05Y-3.5
X6.05Y-3.8
X6.15Y-3.5
X6.15Y-3.8
X6.25Y-3.5
X6.25Y-3.8
X6.35Y-3.5
X6.35Y-3.8
X6.45Y-3.5
X6.45Y-3.8
X6.55Y-3.5
X6.55Y-3.8
X6.65Y-3.5
X6.65Y-3.8
X5.95Y-1.4
X5.95Y-1.7
X6.05Y-1.4
X6.05Y-1.7
X6.15Y-1.4
X6.15Y-1.7
X6.25Y-1.4
X6.25Y-1.7
X6.35Y-1.4
X6.35Y-1.7
X6.45Y-1.4
X6.45Y-1.7
X6.55Y-1.4
X6.55Y-1.7
X6.65Y-1.4
X6.65Y-1.7
X7.7Y-2.25
X7.7Y-2.35
X7.7Y-2.45
X7.7Y-2.55
X7.7Y-2.65
X7.7Y-2.75
X7.7Y-2.85
X7.7Y-2.95
X8.2Y-2.25
X8.2Y-2.35
X8.2Y-2.45
X8.2Y-2.55
X8.2Y-2.65
X8.2Y-2.75
X8.2Y-2.85
X8.2Y-2.95
X4.85Y-2.8
X4.85Y-3.1
X4.95Y-2.8
X4.95Y-3.1
X5.05Y-2.8
X5.05Y-3.1
X5.15Y-2.8
X5.15Y-3.1
X5.25Y-2.8
X5.25Y-3.1
X5.35Y-2.8
X5.35Y-3.1
X5.45Y-2.8
X5.45Y-3.1
X5.55Y-2.8
X5.55Y-3.1
X4.85Y-3.5
X4.85Y-3.8
X4.95Y-3.5
X4.95Y-3.8
X5.05Y-3.5
X5.05Y-3.8
X5.15Y-3.5
X5.15Y-3.8
X5.25Y-3.5
X5.25Y-3.8
X5.35Y-3.5
X5.35Y-3.8
X5.45Y-3.5
X5.45Y-3.8
X5.55Y-3.5
X5.55Y-3.8
X5.95Y-2.8
X5.95Y-3.1
X6.05Y-2.8
X6.05Y-3.1
X6.15Y-2.8
X6.15Y-3.1
X6.25Y-2.8
X6.25Y-3.1
X6.35Y-2.8
X6.35Y-3.1
X6.45Y-2.8
X6.45Y-3.1
X6.55Y-2.8
X6.55Y-3.1
X6.65Y-2.8
X6.65Y-3.1
X4.85Y-1.4
X4.85Y-1.7
X4.95Y-1.4
X4.95Y-1.7
X5.05Y-1.4
X5.05Y-1.7
X5.15Y-1.4
X5.15Y-1.7
X5.25Y-1.4
X5.25Y-1.7
X5.35Y-1.4
X5.35Y-1.7
X5.45Y-1.4
X5.45Y-1.7
X5.55Y-1.4
X5.55Y-1.7
X4.85Y-2.1
X4.85Y-2.4
X4.95Y-2.1
X4.95Y-2.4
X5.05Y-2.1
X5.05Y-2.4
X5.15Y-2.1
X5.15Y-2.4
X5.25Y-2.1
X5.25Y-2.4
X5.35Y-2.1
X5.35Y-2.4
X5.45Y-2.1
X5.45Y-2.4
X5.55Y-2.1
X5.55Y-2.4
X5.95Y-2.1
X5.95Y-2.4
X6.05Y-2.1
X6.05Y-2.4
X6.15Y-2.1
X6.15Y-2.4
X6.25Y-2.1
X6.25Y-2.4
X6.35Y-2.1
X6.35Y-2.4
X6.45Y-2.1
X6.45Y-2.4
X6.55Y-2.1
X6.55Y-2.4
X6.65Y-2.1
X6.65Y-2.4
T4
X8.95Y-2.55
X8.95Y-2.65
X7.4Y-2.25
X7.4Y-2.35
X7.4Y-2.45
X7.5Y-2.25
X7.5Y-2.35
X7.5Y-2.45
X8.4Y-2.45
X8.4Y-2.55
X8.4Y-2.65
X8.4Y-2.75
X4.85Y-1.95
X4.95Y-1.95
X5.05Y-1.95
X5.15Y-1.95
X5.25Y-1.95
X5.35Y-1.95
X5.45Y-1.95
X5.55Y-1.95
X8.95Y-2.9
X8.95Y-3.0
X8.4Y-1.3
X8.4Y-1.4
X8.4Y-1.5
X8.4Y-1.6
X4.85Y-2.65
X4.95Y-2.65
X5.05Y-2.65
X5.15Y-2.65
X5.25Y-2.65
X5.35Y-2.65
X5.45Y-2.65
X5.55Y-2.65
X5.95Y-2.65
X6.05Y-2.65
X6.15Y-2.65
X6.25Y-2.65
X6.35Y-2.65
X6.45Y-2.65
X6.55Y-2.65
X6.65Y-2.65
X8.65Y-2.9
X8.65Y-3.0
X5.95Y-1.95
X6.05Y-1.95
X6.15Y-1.95
X6.25Y-1.95
X6.35Y-1.95
X6.45Y-1.95
X6.55Y-1.95
X6.65Y-1.95
X7.4Y-1.1
X7.4Y-1.2
X7.4Y-1.3
X7.5Y-1.1
X7.5Y-1.2
X7.5Y-1.3
X5.95Y-1.25
X6.05Y-1.25
X6.15Y-1.25
X6.25Y-1.25
X6.35Y-1.25
X6.45Y-1.25
X6.55Y-1.25
X6.65Y-1.25
X5.95Y-3.35
X6.05Y-3.35
X6.15Y-3.35
X6.25Y-3.35
X6.35Y-3.35
X6.45Y-3.35
X6.55Y-3.35
X6.65Y-3.35
X4.85Y-3.35
X4.95Y-3.35
X5.05Y-3.35
X5.15Y-3.35
X5.25Y-3.35
X5.35Y-3.35
X5.45Y-3.35
X5.55Y-3.35
X4.85Y-1.25
X4.95Y-1.25
X5.05Y-1.25
X5.15Y-1.25
X5.25Y-1.25
X5.35Y-1.25
X5.45Y-1.25
X5.55Y-1.25
X8.65Y-2.55
X8.65Y-2.65
T5
X7.65Y-3.25
X7.65Y-3.35
X7.65Y-3.45
X7.65Y-3.55
X7.65Y-3.65
X7.65Y-3.75
X7.65Y-3.85
X7.75Y-3.25
X7.75Y-3.85
X7.85Y-3.25
X7.85Y-3.85
X7.95Y-3.25
X7.95Y-3.85
X8.05Y-3.25
X8.05Y-3.85
X8.15Y-3.25
X8.15Y-3.85
X8.25Y-3.25
X8.25Y-3.85
X8.35Y-3.25
X8.35Y-3.85
X8.45Y-3.25
X8.45Y-3.75
X8.45Y-3.85
X8.55Y-3.25
X8.55Y-3.75
X8.55Y-3.85
X8.65Y-3.25
X8.65Y-3.75
X8.65Y-3.85
X8.75Y-3.25
X8.75Y-3.85
X8.85Y-3.25
X8.85Y-3.75
X8.85Y-3.85
X8.95Y-3.25
X8.95Y-3.85
X8.75Y-1.15
X8.85Y-1.15
X8.95Y-1.15
T6
X7.0Y-1.9
X7.5Y-1.9
X7.0Y-3.05
X7.5Y-3.05
X7.0Y-2.85
X7.5Y-2.85
X7.0Y-1.7
X7.5Y-1.7
X7.0Y-1.5
X7.5Y-1.5
X8.7Y-1.6
X8.7Y-2.1
X7.0Y-2.65
X7.5Y-2.65
T7
X8.95Y-1.6
X8.95Y-2.1
T0
M30
